Just Wright (2010) X264 MKV AC3+DTS NLSubs-DMT

Verenigde Staten
Komedie / Romantiek
100 minuten

geregisseerd door Sanaa Hamri
met Queen Latifah, Paula Patton en Common

'Just Wright' draait om sport trainster Leslie Wright (Queen Latifah) die verliefd
wordt op de professionele basketbalspeler Scott McKnight (Common).Ze is zijn
rehabilitatie coach waarbij ze hem helpt te herstellen van zijn blessures die hij
heeft opgelopen in zijn carrière. De dingen worden gecompliceerd wanneer haar
beste vriendin Morgan Alexander (Paula Patton) ook achter hem aan zit.

MM:    http://www.moviemeter.nl/film/64664

PLOT

A physical therapist falls for the basketball player
she is helping recover from a career-threatening injury.

IMDB:    http://www.imdb.com/title/tt1407061/ 
 
http://www.youtube.com/watch?v=ZHYSeSAXQf4

INFO

Source= 1080p
Video= 1920x800
Audio 1= DTS
Audio 2= AC3
Subs= Dutch (Thanks FRT-TEAM)
Muxer= NLUPPER

Player Info

General
Complete name                    : Just.Wright.2010.X264.MKV.AC3.DTS.NLSubs-DMT.mkv
Format                           : Matroska
File size                        : 8.39 GiB
Duration                         : 1h 40mn
Overall bit rate                 : 11.9 Mbps
Encoded date                     : UTC 2010-10-24 20:07:52
Writing application              : mkvmerge v4.3.0 ('Escape from the Island') built on Sep  5 2010 10:30:51
Writing library                  : libebml v1.0.0 + libmatroska v1.0.0

Video
ID                               : 1
Format                           : AVC
Format/Info                      : Advanced Video Codec
Format profile                   : High@L4.1
Format settings, CABAC           : Yes
Format settings, ReFrames        : 5 frames
Muxing mode                      : Container profile=Unknown@4.1
Codec ID                         : V_MPEG4/ISO/AVC
Duration                         : 1h 40mn
Bit rate                         : 9 795 Kbps
Width                            : 1 920 pixels
Height                           : 800 pixels
Display aspect ratio             : 2.40:1
Frame rate                       : 23.976 fps
Color space                      : YUV
Chroma subsampling               : 4:2:0
Bit depth                        : 8 bits
Scan type                        : Progressive
Bits/(Pixel*Frame)               : 0.266
Stream size                      : 6.71 GiB (80%)
Writing library                  : x264 core 104 r1688 0b36c6d
Encoding settings                : cabac=1 / ref=5 / deblock=1:0:0 / analyse=0x3:0x133 / 
me=umh / subme=7 / psy=1 / psy_rd=1.00:0.15 / mixed_ref=1 / me_range=16 / chroma_me=1 / 
trellis=1 / 8x8dct=1 / cqm=0 / deadzone=21,11 / fast_pskip=0 / chroma_qp_offset=-3 / 
threads=6 / sliced_threads=0 / nr=0 / decimate=0 / interlaced=0 / constrained_intra=0 / 
bframes=3 / b_pyramid=2 / b_adapt=1 / b_bias=0 / direct=1 / weightb=1 / open_gop=0 / 
weightp=2 / keyint=250 / keyint_min=23 / scenecut=40 / intra_refresh=0 / rc_lookahead=40 / 
rc=2pass / mbtree=1 / bitrate=9795 / ratetol=1.0 / qcomp=0.60 / qpmin=10 / qpmax=51 / 
qpstep=4 / cplxblur=20.0 / qblur=0.5 / ip_ratio=1.40 / aq=2:1.00
Language                         : English

Audio #1
ID                               : 2
Format                           : DTS
Format/Info                      : Digital Theater Systems
Muxing mode                      : Header stripping
Codec ID                         : A_DTS
Duration                         : 1h 40mn
Bit rate mode                    : Constant
Bit rate                         : 1 510 Kbps
Channel(s)                       : 6 channels
Channel positions                : Front: L C R, Side: L R, LFE
Sampling rate                    : 48.0 KHz
Bit depth                        : 24 bits
Stream size                      : 1.06 GiB (13%)
Title                            : DTS
Language                         : English

Audio #2
ID                               : 3
Format                           : AC-3
Format/Info                      : Audio Coding 3
Mode extension                   : CM (complete main)
Muxing mode                      : Header stripping
Codec ID                         : A_AC3
Duration                         : 1h 40mn
Bit rate mode                    : Constant
Bit rate                         : 640 Kbps
Channel(s)                       : 6 channels
Channel positions                : Front: L C R, Side: L R, LFE
Sampling rate                    : 48.0 KHz
Bit depth                        : 16 bits
Stream size                      : 460 MiB (5%)
Title                            : AC3 640
Language                         : English

Text
ID                               : 4
Format                           : UTF-8
Codec ID                         : S_TEXT/UTF8
Codec ID/Info                    : UTF-8 Plain Text
Title                            : Nederlands
Language                         : Dutch

